<?xml version="1.0" encoding="UTF-8"?>
<svg xmlns="http://www.w3.org/2000/svg" style="display:none">

  <!-- === About / Didactics ======================================== -->
  <symbol id="icon-mechanisms" viewBox="0 0 64 64">
    <circle cx="16" cy="16" r="6" stroke="currentColor" stroke-width="3" fill="none"/>
    <circle cx="48" cy="16" r="6" stroke="currentColor" stroke-width="3" fill="none"/>
    <circle cx="32" cy="44" r="6" stroke="currentColor" stroke-width="3" fill="none"/>
    <line x1="20" y1="20" x2="28" y2="38" stroke="currentColor" stroke-width="3"/>
    <line x1="44" y1="20" x2="36" y2="38" stroke="currentColor" stroke-width="3"/>
    <line x1="22" y1="16" x2="42" y2="16" stroke="currentColor" stroke-width="3"/>
  </symbol>

  <symbol id="icon-exploration" viewBox="0 0 64 64">
    <rect x="12" y="20" width="40" height="4" fill="currentColor"/>
    <circle cx="20" cy="22" r="6" stroke="currentColor" stroke-width="3" fill="none"/>
    <circle cx="44" cy="22" r="6" stroke="currentColor" stroke-width="3" fill="none"/>
    <line x1="32" y1="24" x2="32" y2="44" stroke="currentColor" stroke-width="3"/>
  </symbol>

  <symbol id="icon-precision" viewBox="0 0 64 64">
    <circle cx="32" cy="32" r="20" stroke="currentColor" stroke-width="3" fill="none"/>
    <circle cx="32" cy="32" r="6" fill="currentColor"/>
    <line x1="32" y1="12" x2="32" y2="0" stroke="currentColor" stroke-width="3"/>
    <line x1="32" y1="64" x2="32" y2="52" stroke="currentColor" stroke-width="3"/>
  </symbol>

  <!-- === Stations (Intro / Explore / Challenge / Library) ========= -->
  <symbol id="icon-intro" viewBox="0 0 64 64">
    <rect x="10" y="18" width="44" height="28" stroke="currentColor" stroke-width="3" fill="none"/>
    <line x1="10" y1="28" x2="54" y2="28" stroke="currentColor" stroke-width="3"/>
  </symbol>

  <symbol id="icon-explore" viewBox="0 0 64 64">
    <circle cx="28" cy="28" r="12" stroke="currentColor" stroke-width="3" fill="none"/>
    <line x1="40" y1="40" x2="54" y2="54" stroke="currentColor" stroke-width="3"/>
  </symbol>

  <symbol id="icon-challenge" viewBox="0 0 64 64">
    <polygon points="32,8 8,56 56,56" stroke="currentColor" stroke-width="3" fill="none"/>
    <circle cx="32" cy="44" r="4" fill="currentColor"/>
  </symbol>

  <symbol id="icon-library" viewBox="0 0 64 64">
    <rect x="12" y="12" width="12" height="40" stroke="currentColor" stroke-width="3" fill="none"/>
    <rect x="28" y="12" width="12" height="40" stroke="currentColor" stroke-width="3" fill="none"/>
    <rect x="44" y="12" width="12" height="40" stroke="currentColor" stroke-width="3" fill="none"/>
  </symbol>

  <!-- === MiniLab Beispiele ======================================== -->
  <symbol id="icon-ml1" viewBox="0 0 64 64">
    <path d="M8,48 C16,24 48,40 56,16" stroke="currentColor" stroke-width="3" fill="none"/>
  </symbol>

  <symbol id="icon-ml2" viewBox="0 0 64 64">
    <circle cx="32" cy="32" r="16" stroke="currentColor" stroke-width="3" fill="none"/>
    <circle cx="32" cy="32" r="4" fill="currentColor"/>
  </symbol>

</svg>
